<svg xmlns="http://www.w3.org/2000/svg" viewBox="0 0 612 408">
    <g fill="#22ad96" fill-rule="evenodd">
      <path d="m92 270-2 4v3l-4 8-2 8-2 3v2l2 1 1-1 1 1 2-1 2 1h30l1-2-2-2h-1l-1-2-5-5h-1l-3-3v-1h-1l-14-14Zm14-38-8 8-4 10 1 15 36 34 10-1 11-5 4-5 3-8-1-16-31-33-14-1Zm259-5h-14l-1 1-2-1h-4l-1 1v3l1 1v8l1 1v10l1 1v10h2l1-1 5-10 2-2v-2l3-4 1-4 2-2 4-8Zm-62 0v72h29l12-25-3-31-1-1v-13l-2-2Zm-41 0-1 1v34l-1 1v36h27l12-22v-49l-1-1Zm-131 0v2h1l1 2h1l2 2v1l2 1 2 2v1h1l1 2 2 2h1l1 2 2 1 1 2 2 2h1l4 5h1l2 2h2v-2l1-1v-2l1-1v-2l1-1v-2l1-1v-2l2-4v-3l2-4v-4l2-1-1-1 1-1Z"/>
      <path d="m133 352 419 3L344 40l-60 90h40l19-27 141 212-282 1 3-9-42-1Z"/>
    </g>
    <path d="m171 226-1 2 1-1 2 2v7l3 12v7l7 43 1 1h27l12-17v-9l-4-15v-8l-5-23h-42Zm147-89h-39l-60 89 8 49 35-49 55-84Z" fill="#de3e8d" fill-rule="evenodd"/>
</svg>
